<svg width="64" height="64" viewBox="0 0 64 64" fill="none" xmlns="http://www.w3.org/2000/svg">
<rect width="64" height="64" rx="32" fill="#C4C4C4" fill-opacity="0.5"/>
<g opacity="0.5">
<path d="M29.7476 22.4C29.4141 22.4 29.0871 22.4927 28.8031 22.6677C28.5192 22.8428 28.2895 23.0932 28.1396 23.3912L27.4316 24.8H25.4036C24.608 24.8 23.8449 25.1161 23.2823 25.6787C22.7197 26.2413 22.4036 27.0044 22.4036 27.8V37.4C22.4036 38.1957 22.7197 38.9587 23.2823 39.5213C23.8449 40.084 24.608 40.4 25.4036 40.4H29.6036C29.6132 40.2632 29.6348 40.124 29.6696 39.9836L30.1196 38.186C30.2588 37.6292 30.5216 37.1108 30.8864 36.6704C29.7453 36.3947 28.7447 35.7105 28.0738 34.7471C27.4028 33.7838 27.1079 32.6081 27.2449 31.4422C27.3818 30.2762 27.9411 29.2008 28.817 28.4192C29.693 27.6376 30.8248 27.2039 31.9988 27.2C33.0749 27.2002 34.1198 27.5618 34.9658 28.2267C35.8119 28.8917 36.41 29.8216 36.6644 30.8672L36.9236 30.6092C37.5377 29.9952 38.3612 29.6358 39.229 29.6031C40.0968 29.5704 40.945 29.8667 41.6036 30.4328V27.7988C41.6036 27.0032 41.2875 26.2401 40.7249 25.6775C40.1623 25.1149 39.3993 24.7988 38.6036 24.7988H36.5768L35.8748 23.3948C35.7252 23.0958 35.4954 22.8444 35.2109 22.6686C34.9265 22.4929 34.5987 22.3999 34.2644 22.4H29.7476Z" fill="black"/>
<path d="M35.5988 31.934C35.586 31.2277 35.3656 30.5408 34.9652 29.9589C34.5648 29.3769 34.0021 28.9256 33.3471 28.6612C32.692 28.3967 31.9737 28.3309 31.2815 28.4717C30.5893 28.6126 29.9538 28.954 29.4542 29.4534C28.9547 29.9528 28.613 30.5882 28.4719 31.2803C28.3308 31.9725 28.3965 32.6909 28.6607 33.346C28.9249 34.0011 29.3761 34.564 29.9579 34.9646C30.5397 35.3652 31.2265 35.5857 31.9328 35.5988L35.6 31.934H35.5988Z" fill="black"/>
<path d="M37.772 31.4576L31.976 37.2536C31.6382 37.5913 31.3985 38.0143 31.2824 38.4776L30.8324 40.2752C30.788 40.454 30.7906 40.6412 30.84 40.8187C30.8894 40.9962 30.9838 41.1579 31.1141 41.2881C31.2444 41.4183 31.4062 41.5125 31.5837 41.5617C31.7612 41.6109 31.9485 41.6134 32.1272 41.5688L33.9248 41.12C34.388 41.0036 34.8116 40.7648 35.1488 40.4264L40.9448 34.6304C41.3602 34.2084 41.5919 33.6393 41.5895 33.0472C41.5871 32.4551 41.3507 31.8879 40.932 31.4693C40.5132 31.0506 39.9459 30.8145 39.3538 30.8123C38.7617 30.8102 38.1927 31.0421 37.7708 31.4576H37.772Z" fill="black"/>
</g>
</svg>
