<svg width="32" height="33" viewBox="0 0 32 33" fill="none" xmlns="http://www.w3.org/2000/svg">
<path fill-rule="evenodd" clip-rule="evenodd" d="M4 8.73584C4 7.67497 4.42143 6.65756 5.17157 5.90741C5.92172 5.15727 6.93913 4.73584 8 4.73584H24C25.0609 4.73584 26.0783 5.15727 26.8284 5.90741C27.5786 6.65756 28 7.67497 28 8.73584V24.7358C28 25.7967 27.5786 26.8141 26.8284 27.5643C26.0783 28.3144 25.0609 28.7358 24 28.7358H8C6.93913 28.7358 5.92172 28.3144 5.17157 27.5643C4.42143 26.8141 4 25.7967 4 24.7358V8.73584ZM17.3333 11.4025C17.3333 11.0489 17.1929 10.7097 16.9428 10.4597C16.6928 10.2096 16.3536 10.0692 16 10.0692C15.6464 10.0692 15.3072 10.2096 15.0572 10.4597C14.8071 10.7097 14.6667 11.0489 14.6667 11.4025V22.0692C14.6667 22.4228 14.8071 22.7619 15.0572 23.012C15.3072 23.262 15.6464 23.4025 16 23.4025C16.3536 23.4025 16.6928 23.262 16.9428 23.012C17.1929 22.7619 17.3333 22.4228 17.3333 22.0692V11.4025ZM12 15.4025C12 15.0489 11.8595 14.7097 11.6095 14.4597C11.3594 14.2096 11.0203 14.0692 10.6667 14.0692C10.313 14.0692 9.97391 14.2096 9.72386 14.4597C9.47381 14.7097 9.33333 15.0489 9.33333 15.4025V22.0692C9.33333 22.4228 9.47381 22.7619 9.72386 23.012C9.97391 23.262 10.313 23.4025 10.6667 23.4025C11.0203 23.4025 11.3594 23.262 11.6095 23.012C11.8595 22.7619 12 22.4228 12 22.0692V15.4025ZM22.6667 19.4025C22.6667 19.0489 22.5262 18.7097 22.2761 18.4597C22.0261 18.2097 21.687 18.0692 21.3333 18.0692C20.9797 18.0692 20.6406 18.2097 20.3905 18.4597C20.1405 18.7097 20 19.0489 20 19.4025V22.0692C20 22.4228 20.1405 22.7619 20.3905 23.012C20.6406 23.262 20.9797 23.4025 21.3333 23.4025C21.687 23.4025 22.0261 23.262 22.2761 23.012C22.5262 22.7619 22.6667 22.4228 22.6667 22.0692V19.4025Z" fill="white"/>
</svg>
