<svg width="32" height="32" viewBox="0 0 32 32" fill="none" xmlns="http://www.w3.org/2000/svg">
<path d="M0 16C0 7.16344 7.16344 0 16 0V0C24.8366 0 32 7.16344 32 16V16C32 24.8366 24.8366 32 16 32V32C7.16344 32 0 24.8366 0 16V16Z" fill="#A532FF"/>
<path fill-rule="evenodd" clip-rule="evenodd" d="M19.6837 4.41099C22.5054 6.25193 23.0626 9.67782 23.1012 12.8016C23.1174 14.1222 23.105 15.4371 23.0926 16.7502C23.0684 19.3049 23.0442 21.8531 23.232 24.4242C23.2188 24.2406 20.2437 23.7992 19.904 23.7842C19.1896 23.7533 18.4508 23.8204 17.7203 23.8867C17.3603 23.9194 17.0024 23.9519 16.6503 23.9724C16.0364 24.0108 15.4087 24.0262 14.7775 24.0417C13.5676 24.0713 12.345 24.1013 11.1821 24.2943C10.9566 24.3318 10.7341 24.3698 10.5134 24.4075C9.34496 24.6069 8.22759 24.7976 6.99103 24.8665C6.89329 24.8835 6.79272 24.8637 6.70868 24.811C6.61456 24.7338 6.61456 24.5945 6.61456 24.4731C6.61456 23.0184 6.67973 21.5643 6.74485 20.1113C6.83683 18.0589 6.92871 16.0087 6.83668 13.9621C6.75481 12.2209 7.04353 10.4822 7.68374 8.86088C8.23072 7.46277 9.08879 6.20753 10.1929 5.19029C10.4927 4.91938 10.8144 4.67383 11.1548 4.45617C13.6837 2.82982 17.136 2.74888 19.6837 4.41099ZM11.3863 11.467L12.7124 12.4081L16.9854 8.13614L16.448 7.79637C15.9358 8.66444 15.2329 9.40467 14.3924 9.96108C13.4643 10.5987 12.4527 11.1054 11.3863 11.467Z" fill="#00214E"/>
<path d="M26.6805 25.1028C20.3889 29.9471 11.6132 29.9084 5.36469 25.0086L9.94445 22.8618C10.0846 22.7955 10.2213 22.722 10.3539 22.6416L10.4593 22.5757C10.4969 22.5522 10.5336 22.5277 10.5703 22.5023C11.1481 22.1037 11.6217 21.572 11.951 20.9522C12.3275 20.2416 12.4517 19.4566 12.4574 18.6566C12.4574 18.2171 12.4395 17.7776 12.4282 17.339C12.4282 17.2405 12.4263 17.1417 12.4226 17.0425C12.4188 16.7445 12.4157 16.4461 12.4132 16.1475H12.4188L12.5995 16.2416L13.0889 16.4948L15.9397 16.9795L18.8687 17.4783L18.9383 19.8312L18.9543 20.3865V20.4872L18.9986 21.9809L20.0781 22.4204L20.9252 22.763L26.6805 25.1028Z" fill="#F2A196"/>
<path d="M18.9383 19.8303C18.7348 19.9701 18.4915 20.0405 18.2447 20.0308C16.8536 19.8811 14.1374 18.7903 12.4301 16.7715C12.4301 16.673 12.4282 16.5741 12.4244 16.475C12.4244 16.3658 12.4244 16.2566 12.4244 16.1475L12.6051 16.2416L13.0946 16.4948L15.9454 16.9795L18.8743 17.4783L18.9383 19.8303Z" fill="#E88870"/>
<ellipse cx="9.77786" cy="13.1328" rx="1.6" ry="1.6" fill="#F2A196"/>
<ellipse cx="10.3426" cy="12.9446" rx="1.6" ry="1.6" fill="#E88870"/>
<path d="M20.9346 10.7102C22.0395 14.5389 19.6913 19.1686 18.2485 19.1686C16.272 19.1686 11.472 17.5893 10.368 13.7606C9.26398 9.93189 10.736 6.1446 13.6536 5.30318C16.5713 4.46177 19.8287 6.8806 20.9346 10.7102Z" fill="#F2A196"/>
<path d="M15.4701 15.3616C15.9222 15.8667 16.5422 16.1908 17.215 16.2736" stroke="#00214E" stroke-width="0.4375"/>
<path d="M17.4108 11.113C17.4108 11.1319 17.8616 11.9187 18.0997 12.7686C18.2098 13.2232 18.2607 13.6901 18.2513 14.1577H16.9797" stroke="#00214E" stroke-width="0.4375"/>
<path d="M18.5788 10.3122C19.2437 9.97345 20.0128 9.90075 20.7294 10.1089" stroke="#00214E" stroke-width="0.4375"/>
<path d="M13.0127 10.6867C13.9297 10.2196 15.007 10.1851 15.952 10.5926" stroke="#00214E" stroke-width="0.4375"/>
<path d="M14.6635 11.5206C15.2376 11.5253 15.2376 12.4025 14.6635 12.4072H14.6372C14.063 12.4072 14.063 11.5253 14.6372 11.5206H14.6635Z" fill="#00214E"/>
<path d="M19.3807 11.3899C19.9143 11.3899 19.9143 12.2087 19.3807 12.2125H19.3572C18.8245 12.2125 18.8245 11.3937 19.3572 11.3899H19.3807Z" fill="#00214E"/>
<path d="M17.5059 4.29801C17.4621 4.74123 17.3907 5.1813 17.2922 5.61565C17.1238 6.38213 16.8381 7.11802 16.4452 7.7973C15.933 8.66537 15.2301 9.4056 14.3896 9.962C13.4615 10.5996 12.4499 11.1063 11.3835 11.4679C10.5515 11.7578 9.68939 11.7832 8.79904 11.9601C8.82822 11.242 8.79904 10.5418 8.88751 9.70789C8.95339 9.1093 9.08516 8.538 9.35057 8.07777C10.0707 6.86 11.1212 5.87122 12.3802 5.22601L12.3915 5.22036C13.7835 4.50412 15.9397 3.7973 17.5059 4.29801Z" fill="#00214E"/>
<ellipse cx="10.0132" cy="13.1291" rx="0.565646" ry="0.56565" fill="#F2D4CF"/>
<path d="M8.94022 14.4909C8.9054 14.4853 8.86963 14.4787 8.83387 14.4702C8.1545 14.314 7.70088 13.6724 7.78019 12.9798C7.8595 12.2873 8.44642 11.7648 9.14351 11.7662V11.7662C9.18361 11.7661 9.21855 11.7935 9.22796 11.8325C9.23736 11.8715 9.21878 11.9118 9.18304 11.93C8.76747 12.1538 8.49645 12.5759 8.46584 13.0469C8.43523 13.5179 8.64934 13.9715 9.03245 14.2472C9.08261 14.2826 9.10247 14.3474 9.08075 14.4048C9.05903 14.4622 9.00123 14.4976 8.94022 14.4909V14.4909Z" fill="#F2D4CF"/>
<path d="M8.9101 11.9149C9.10508 11.8406 9.32101 11.8429 9.51433 11.9215C9.71953 12.0128 9.87626 12.1869 9.94539 12.4006C9.99879 12.5514 10.0218 12.7114 10.0132 12.8712" stroke="#F2D4CF" stroke-width="0.875"/>
<path d="M26.6805 25.1028C20.3889 29.9471 11.6132 29.9084 5.36469 25.0086L9.94445 22.8618C10.1626 22.7593 10.3719 22.639 10.5703 22.5023C10.6306 22.4609 10.6908 22.4176 10.7482 22.3724C11.2467 21.991 11.6569 21.5066 11.951 20.9522C12.1734 20.5262 12.3211 20.0652 12.3877 19.5894C12.4542 19.6538 12.524 19.7147 12.5967 19.7719C13.1737 20.199 13.8 20.5551 14.4621 20.8326C14.7835 20.9667 15.1122 21.0827 15.4466 21.1799C16.454 21.4737 17.5059 21.5849 18.5525 21.5084C18.6974 21.4971 18.8433 21.483 18.9882 21.4726L19.0023 21.9508V21.9818L20.1412 22.4449L26.6805 25.1028Z" fill="#F2D4CF"/>
<path d="M16.4433 7.80112C15.9311 8.66919 15.2282 9.40942 14.3877 9.96582C13.4596 10.6034 12.448 11.1101 11.3816 11.4717L8.88563 9.71171L7.68375 8.86465C8.23073 7.46654 9.0888 6.2113 10.1929 5.19406C10.4925 4.92185 10.8143 4.67504 11.1548 4.45618L12.3783 5.22982L16.4433 7.80112Z" fill="url(#paint0_linear_123_9839)"/>
<defs>
<linearGradient id="paint0_linear_123_9839" x1="13.5587" y1="14.1126" x2="17.3431" y2="6.26014" gradientUnits="userSpaceOnUse">
<stop offset="0.29" stop-color="#00214E"/>
<stop offset="0.51" stop-color="#6878B1"/>
<stop offset="0.79" stop-color="#00214E"/>
</linearGradient>
</defs>
</svg>
