<svg width="32" height="33" viewBox="0 0 32 33" fill="none" xmlns="http://www.w3.org/2000/svg">
<path d="M9 4.73584C7.67392 4.73584 6.40215 5.26262 5.46447 6.20031C4.52678 7.13799 4 8.40976 4 9.73584V10.7358H28V9.73584C28 8.40976 27.4732 7.13799 26.5355 6.20031C25.5979 5.26262 24.3261 4.73584 23 4.73584H9ZM4 23.7358V12.7358H28V23.7358C28 25.0619 27.4732 26.3337 26.5355 27.2714C25.5979 28.2091 24.3261 28.7358 23 28.7358H9C7.67392 28.7358 6.40215 28.2091 5.46447 27.2714C4.52678 26.3337 4 25.0619 4 23.7358ZM10.5 18.7358C10.8978 18.7358 11.2794 18.5778 11.5607 18.2965C11.842 18.0152 12 17.6337 12 17.2358C12 16.838 11.842 16.4565 11.5607 16.1752C11.2794 15.8939 10.8978 15.7358 10.5 15.7358C10.1022 15.7358 9.72064 15.8939 9.43934 16.1752C9.15804 16.4565 9 16.838 9 17.2358C9 17.6337 9.15804 18.0152 9.43934 18.2965C9.72064 18.5778 10.1022 18.7358 10.5 18.7358ZM12 22.2358C12 21.838 11.842 21.4565 11.5607 21.1752C11.2794 20.8939 10.8978 20.7358 10.5 20.7358C10.1022 20.7358 9.72064 20.8939 9.43934 21.1752C9.15804 21.4565 9 21.838 9 22.2358C9 22.6337 9.15804 23.0152 9.43934 23.2965C9.72064 23.5778 10.1022 23.7358 10.5 23.7358C10.8978 23.7358 11.2794 23.5778 11.5607 23.2965C11.842 23.0152 12 22.6337 12 22.2358ZM16 23.7358C16.3978 23.7358 16.7794 23.5778 17.0607 23.2965C17.342 23.0152 17.5 22.6337 17.5 22.2358C17.5 21.838 17.342 21.4565 17.0607 21.1752C16.7794 20.8939 16.3978 20.7358 16 20.7358C15.6022 20.7358 15.2206 20.8939 14.9393 21.1752C14.658 21.4565 14.5 21.838 14.5 22.2358C14.5 22.6337 14.658 23.0152 14.9393 23.2965C15.2206 23.5778 15.6022 23.7358 16 23.7358ZM17.5 17.2358C17.5 16.838 17.342 16.4565 17.0607 16.1752C16.7794 15.8939 16.3978 15.7358 16 15.7358C15.6022 15.7358 15.2206 15.8939 14.9393 16.1752C14.658 16.4565 14.5 16.838 14.5 17.2358C14.5 17.6337 14.658 18.0152 14.9393 18.2965C15.2206 18.5778 15.6022 18.7358 16 18.7358C16.3978 18.7358 16.7794 18.5778 17.0607 18.2965C17.342 18.0152 17.5 17.6337 17.5 17.2358ZM21.5 18.7358C21.8978 18.7358 22.2794 18.5778 22.5607 18.2965C22.842 18.0152 23 17.6337 23 17.2358C23 16.838 22.842 16.4565 22.5607 16.1752C22.2794 15.8939 21.8978 15.7358 21.5 15.7358C21.1022 15.7358 20.7206 15.8939 20.4393 16.1752C20.158 16.4565 20 16.838 20 17.2358C20 17.6337 20.158 18.0152 20.4393 18.2965C20.7206 18.5778 21.1022 18.7358 21.5 18.7358Z" fill="white"/>
</svg>
