<svg width="16" height="16" viewBox="0 0 16 16" fill="none" xmlns="http://www.w3.org/2000/svg">
<path d="M4.5 2C3.83696 2 3.20107 2.26339 2.73223 2.73223C2.26339 3.20107 2 3.83696 2 4.5V5H14V4.5C14 3.83696 13.7366 3.20107 13.2678 2.73223C12.7989 2.26339 12.163 2 11.5 2H4.5ZM2 11.5V6H14V11.5C14 12.163 13.7366 12.7989 13.2678 13.2678C12.7989 13.7366 12.163 14 11.5 14H4.5C3.83696 14 3.20107 13.7366 2.73223 13.2678C2.26339 12.7989 2 12.163 2 11.5V11.5ZM5.25 9C5.44891 9 5.63968 8.92098 5.78033 8.78033C5.92098 8.63968 6 8.44891 6 8.25C6 8.05109 5.92098 7.86032 5.78033 7.71967C5.63968 7.57902 5.44891 7.5 5.25 7.5C5.05109 7.5 4.86032 7.57902 4.71967 7.71967C4.57902 7.86032 4.5 8.05109 4.5 8.25C4.5 8.44891 4.57902 8.63968 4.71967 8.78033C4.86032 8.92098 5.05109 9 5.25 9ZM6 10.75C6 10.5511 5.92098 10.3603 5.78033 10.2197C5.63968 10.079 5.44891 10 5.25 10C5.05109 10 4.86032 10.079 4.71967 10.2197C4.57902 10.3603 4.5 10.5511 4.5 10.75C4.5 10.9489 4.57902 11.1397 4.71967 11.2803C4.86032 11.421 5.05109 11.5 5.25 11.5C5.44891 11.5 5.63968 11.421 5.78033 11.2803C5.92098 11.1397 6 10.9489 6 10.75ZM8 11.5C8.19891 11.5 8.38968 11.421 8.53033 11.2803C8.67098 11.1397 8.75 10.9489 8.75 10.75C8.75 10.5511 8.67098 10.3603 8.53033 10.2197C8.38968 10.079 8.19891 10 8 10C7.80109 10 7.61032 10.079 7.46967 10.2197C7.32902 10.3603 7.25 10.5511 7.25 10.75C7.25 10.9489 7.32902 11.1397 7.46967 11.2803C7.61032 11.421 7.80109 11.5 8 11.5ZM8.75 8.25C8.75 8.05109 8.67098 7.86032 8.53033 7.71967C8.38968 7.57902 8.19891 7.5 8 7.5C7.80109 7.5 7.61032 7.57902 7.46967 7.71967C7.32902 7.86032 7.25 8.05109 7.25 8.25C7.25 8.44891 7.32902 8.63968 7.46967 8.78033C7.61032 8.92098 7.80109 9 8 9C8.19891 9 8.38968 8.92098 8.53033 8.78033C8.67098 8.63968 8.75 8.44891 8.75 8.25ZM10.75 9C10.9489 9 11.1397 8.92098 11.2803 8.78033C11.421 8.63968 11.5 8.44891 11.5 8.25C11.5 8.05109 11.421 7.86032 11.2803 7.71967C11.1397 7.57902 10.9489 7.5 10.75 7.5C10.5511 7.5 10.3603 7.57902 10.2197 7.71967C10.079 7.86032 10 8.05109 10 8.25C10 8.44891 10.079 8.63968 10.2197 8.78033C10.3603 8.92098 10.5511 9 10.75 9Z" fill="#262626"/>
</svg>
