<svg width="32" height="33" viewBox="0 0 32 33" fill="none" xmlns="http://www.w3.org/2000/svg">
<path d="M16.992 16.7358C17.7877 16.7358 18.5507 17.0519 19.1133 17.6145C19.6759 18.1771 19.992 18.9402 19.992 19.7358L19.99 21.2328C20.196 24.9058 17.367 26.7378 12.12 26.7378C6.891 26.7378 4 24.9298 4 21.2848V19.7358C4 18.9402 4.31607 18.1771 4.87868 17.6145C5.44129 17.0519 6.20435 16.7358 7 16.7358H16.992ZM24.992 16.7358C25.7876 16.7358 26.5507 17.0519 27.1133 17.6145C27.6759 18.1771 27.992 18.9402 27.992 19.7358V20.7888C28.172 24.0838 25.672 25.7358 21.103 25.7358C20.483 25.7358 19.9 25.7058 19.355 25.6458C20.429 24.6538 21.003 23.3088 21.001 21.6088L20.988 21.1768L20.992 19.7358C20.9925 19.1682 20.872 18.6069 20.6383 18.0896C20.4046 17.5723 20.0633 17.1107 19.637 16.7358H24.993H24.992ZM12 4.73584C13.3263 4.73584 14.5984 5.26273 15.5362 6.2006C16.4741 7.13847 17.001 8.41049 17.001 9.73684C17.001 11.0632 16.4741 12.3352 15.5362 13.2731C14.5984 14.2109 13.3263 14.7378 12 14.7378C10.6737 14.7378 9.40163 14.2109 8.46376 13.2731C7.52589 12.3352 6.999 11.0632 6.999 9.73684C6.999 8.41049 7.52589 7.13847 8.46376 6.2006C9.40163 5.26273 10.6737 4.73584 12 4.73584ZM22 6.73584C23.0609 6.73584 24.0783 7.15727 24.8284 7.90741C25.5786 8.65756 26 9.67497 26 10.7358C26 11.7967 25.5786 12.8141 24.8284 13.5643C24.0783 14.3144 23.0609 14.7358 22 14.7358C20.9391 14.7358 19.9217 14.3144 19.1716 13.5643C18.4214 12.8141 18 11.7967 18 10.7358C18 9.67497 18.4214 8.65756 19.1716 7.90741C19.9217 7.15727 20.9391 6.73584 22 6.73584Z" fill="white"/>
</svg>
