<svg width="24" height="24" viewBox="0 0 24 24" fill="none" xmlns="http://www.w3.org/2000/svg">
<path d="M17.8146 7.97964L14.8953 9.77473L12.0961 6.04831C12.0849 6.03331 12.0702 6.02114 12.0535 6.01275C12.0367 6.00437 12.0181 6 11.9994 6C11.9806 6 11.9621 6.00437 11.9453 6.01275C11.9285 6.02114 11.9139 6.03331 11.9026 6.04831L9.10487 9.77473L6.18414 7.97964C6.09863 7.92724 5.98762 7.9976 6.00112 8.09791L7.14722 16.7904C7.16372 16.9087 7.26573 17 7.38724 17H16.6145C16.7345 17 16.838 16.9102 16.853 16.7904L17.9991 8.09791C18.0111 7.9976 17.9016 7.92724 17.8146 7.97964ZM12.0001 14.8321C11.0685 14.8321 10.311 14.0761 10.311 13.1463C10.311 12.2166 11.0685 11.4605 12.0001 11.4605C12.9317 11.4605 13.6892 12.2166 13.6892 13.1463C13.6892 14.0761 12.9317 14.8321 12.0001 14.8321ZM12.0001 12.4232C11.6011 12.4232 11.277 12.7466 11.277 13.1463C11.277 13.5446 11.6011 13.8694 12.0001 13.8694C12.3991 13.8694 12.7232 13.5461 12.7232 13.1463C12.7232 12.7481 12.3991 12.4232 12.0001 12.4232Z" fill="white"/>
</svg>
