<svg width="69" height="64" viewBox="0 0 69 64" fill="none" xmlns="http://www.w3.org/2000/svg">
<g filter="url(#filter0_d_122_7903)">
<path d="M12.75 18C12.75 13.5817 16.3317 10 20.75 10H48.75C53.1683 10 56.75 13.5817 56.75 18V46C56.75 50.4183 53.1683 54 48.75 54H20.75C16.3317 54 12.75 50.4183 12.75 46V18Z" fill="white"/>
<path d="M34.7502 24C35.4083 24 36.0408 24.2669 36.5146 24.7446C36.9885 25.2224 37.2668 25.8737 37.291 26.5617L37.2926 26.66L40.0384 26.6596C40.2221 26.6597 40.3986 26.734 40.5311 26.8671C40.6636 27.0001 40.7418 27.1816 40.7494 27.3736C40.757 27.5656 40.6933 27.7532 40.5717 27.8972C40.4501 28.0412 40.2801 28.1305 40.097 28.1464L40.0384 28.1489H39.5637L38.9019 37.3277C38.869 37.7824 38.6732 38.2075 38.3535 38.5176C38.0338 38.8277 37.6139 39 37.1779 39H32.3224C31.8864 39 31.4665 38.8277 31.1469 38.5176C30.8272 38.2075 30.6313 37.7824 30.5985 37.3277L29.9362 28.1489H29.4619C29.2832 28.1489 29.111 28.0786 28.9795 27.9519C28.8481 27.8252 28.767 27.6514 28.7524 27.4651L28.75 27.4043C28.75 27.2173 28.8173 27.0372 28.9384 26.8997C29.0595 26.7622 29.2256 26.6774 29.4037 26.6621L29.4619 26.6596H32.2077C32.2077 25.2562 33.2471 24.1064 34.5647 24.0068L34.657 24.0017L34.7502 24ZM36.2756 29.5319C36.1497 29.5319 36.0283 29.5806 35.9348 29.6688C35.8414 29.757 35.7825 29.8784 35.7696 30.0094L35.7671 30.0638V35.1702L35.7696 35.2247C35.7819 35.3561 35.8406 35.478 35.9341 35.5667C36.0276 35.6554 36.1494 35.7045 36.2756 35.7045C36.4019 35.7045 36.5236 35.6554 36.6171 35.5667C36.7107 35.478 36.7693 35.3561 36.7817 35.2247L36.7841 35.1702V30.0638L36.7817 30.0094C36.7688 29.8784 36.7099 29.757 36.6164 29.6688C36.5229 29.5806 36.4015 29.5319 36.2756 29.5319ZM33.2247 29.5319C33.0988 29.5319 32.9774 29.5806 32.8839 29.6688C32.7904 29.757 32.7315 29.8784 32.7186 30.0094L32.7162 30.0638V35.1702L32.7186 35.2247C32.731 35.3561 32.7897 35.478 32.8832 35.5667C32.9767 35.6554 33.0985 35.7045 33.2247 35.7045C33.3509 35.7045 33.4727 35.6554 33.5662 35.5667C33.6597 35.478 33.7184 35.3561 33.7307 35.2247L33.7332 35.1702V30.0638L33.7307 30.0094C33.7179 29.8784 33.659 29.757 33.5655 29.6688C33.472 29.5806 33.3506 29.5319 33.2247 29.5319ZM34.8185 25.4915L34.7502 25.4894C34.4653 25.4893 34.1911 25.603 33.9836 25.8072C33.7761 26.0114 33.6509 26.2906 33.6335 26.5881L33.6315 26.66L35.8688 26.6596C35.8688 26.3616 35.7602 26.0748 35.565 25.8577C35.3698 25.6407 35.1028 25.5097 34.8185 25.4915Z" fill="#292929"/>
</g>
<defs>
<filter id="filter0_d_122_7903" x="0.75" y="-2" width="68" height="68" filterUnits="userSpaceOnUse" color-interpolation-filters="sRGB">
<feFlood flood-opacity="0" result="BackgroundImageFix"/>
<feColorMatrix in="SourceAlpha" type="matrix" values="0 0 0 0 0 0 0 0 0 0 0 0 0 0 0 0 0 0 127 0" result="hardAlpha"/>
<feOffset/>
<feGaussianBlur stdDeviation="6"/>
<feComposite in2="hardAlpha" operator="out"/>
<feColorMatrix type="matrix" values="0 0 0 0 0 0 0 0 0 0 0 0 0 0 0 0 0 0 0.05 0"/>
<feBlend mode="normal" in2="BackgroundImageFix" result="effect1_dropShadow_122_7903"/>
<feBlend mode="normal" in="SourceGraphic" in2="effect1_dropShadow_122_7903" result="shape"/>
</filter>
</defs>
</svg>
