<svg width="24" height="24" viewBox="0 0 24 24" fill="none" xmlns="http://www.w3.org/2000/svg">
<path d="M14.7 16.2C14.9387 16.2 15.1676 16.2948 15.3364 16.4636C15.5052 16.6324 15.6 16.8613 15.6 17.1C15.6 17.3387 15.5052 17.5676 15.3364 17.7364C15.1676 17.9052 14.9387 18 14.7 18H9.3C9.06131 18 8.83239 17.9052 8.6636 17.7364C8.49482 17.5676 8.4 17.3387 8.4 17.1C8.4 16.8613 8.49482 16.6324 8.6636 16.4636C8.83239 16.2948 9.06131 16.2 9.3 16.2H14.7ZM17.1 11.1C17.3387 11.1 17.5676 11.1948 17.7364 11.3636C17.9052 11.5324 18 11.7613 18 12C18 12.2387 17.9052 12.4676 17.7364 12.6364C17.5676 12.8052 17.3387 12.9 17.1 12.9H6.9C6.66131 12.9 6.43239 12.8052 6.2636 12.6364C6.09482 12.4676 6 12.2387 6 12C6 11.7613 6.09482 11.5324 6.2636 11.3636C6.43239 11.1948 6.66131 11.1 6.9 11.1H17.1ZM19.5 6C19.7387 6 19.9676 6.09482 20.1364 6.2636C20.3052 6.43239 20.4 6.66131 20.4 6.9C20.4 7.13869 20.3052 7.36761 20.1364 7.5364C19.9676 7.70518 19.7387 7.8 19.5 7.8H4.5C4.26131 7.8 4.03239 7.70518 3.8636 7.5364C3.69482 7.36761 3.6 7.13869 3.6 6.9C3.6 6.66131 3.69482 6.43239 3.8636 6.2636C4.03239 6.09482 4.26131 6 4.5 6H19.5Z" fill="#292929"/>
</svg>
