<svg width="20" height="20" viewBox="0 0 20 20" fill="none" xmlns="http://www.w3.org/2000/svg">
<path d="M15.6417 14.7216L13.4387 12.525C14.1495 11.6195 14.5351 10.5013 14.5337 9.35014C14.5337 8.32494 14.2297 7.32276 13.6601 6.47034C13.0905 5.61791 12.281 4.95353 11.3338 4.5612C10.3867 4.16887 9.34442 4.06622 8.33892 4.26623C7.33342 4.46624 6.4098 4.95992 5.68488 5.68484C4.95995 6.40977 4.46627 7.33339 4.26626 8.33889C4.06625 9.34439 4.1689 10.3866 4.56123 11.3338C4.95356 12.281 5.61794 13.0905 6.47037 13.6601C7.32279 14.2297 8.32497 14.5337 9.35017 14.5337C10.5013 14.5351 11.6196 14.1494 12.5251 13.4386L14.7216 15.6416C14.7818 15.7024 14.8535 15.7506 14.9324 15.7835C15.0114 15.8164 15.0961 15.8333 15.1816 15.8333C15.2672 15.8333 15.3519 15.8164 15.4308 15.7835C15.5098 15.7506 15.5814 15.7024 15.6417 15.6416C15.7024 15.5814 15.7506 15.5097 15.7835 15.4308C15.8164 15.3518 15.8333 15.2671 15.8333 15.1816C15.8333 15.0961 15.8164 15.0114 15.7835 14.9324C15.7506 14.8535 15.7024 14.7818 15.6417 14.7216ZM5.46254 9.35014C5.46254 8.58124 5.69054 7.82961 6.11772 7.19029C6.5449 6.55097 7.15207 6.05268 7.86244 5.75844C8.57281 5.46419 9.35449 5.3872 10.1086 5.53721C10.8627 5.68721 11.5555 6.05747 12.0991 6.60117C12.6428 7.14487 13.0131 7.83758 13.1631 8.5917C13.3131 9.34583 13.2361 10.1275 12.9419 10.8379C12.6476 11.5483 12.1493 12.1554 11.51 12.5826C10.8707 13.0098 10.1191 13.2378 9.35017 13.2378C8.31911 13.2378 7.33027 12.8282 6.6012 12.0991C5.87213 11.37 5.46254 10.3812 5.46254 9.35014Z" fill="black" fill-opacity="0.2"/>
</svg>
