<svg width="86" height="27" viewBox="0 0 86 27" fill="none" xmlns="http://www.w3.org/2000/svg">
<path d="M0.00601426 21.5179H4.23401V1.91793H0.00601426V21.5179ZM17.0766 5.97793C15.2006 5.97793 13.5206 6.64993 12.2326 7.79793L11.5326 6.39793H8.84461V26.9779H12.9326V20.7059C14.0806 21.5179 15.5086 21.9939 17.0766 21.9939C21.6406 21.9939 25.0006 18.5499 25.0006 13.9579C25.0006 9.39393 21.6406 5.97793 17.0766 5.97793ZM16.7406 18.1019C14.3606 18.1019 12.6246 16.3379 12.6246 13.9579C12.6246 11.6059 14.3606 9.81393 16.7406 9.81393C19.1206 9.81393 20.8566 11.6059 20.8566 13.9579C20.8566 16.3379 19.1206 18.1019 16.7406 18.1019ZM28.4905 21.5179H32.5785V0.965928H28.4905V21.5179ZM43.9503 21.9659C48.2343 21.9659 51.0623 19.2219 51.0623 15.1339V6.39793H46.9743V14.6859C46.9743 16.8139 45.8543 18.1019 43.9503 18.1019C42.0743 18.1019 40.9263 16.8419 40.9263 14.6859V6.39793H36.8383V15.1339C36.8383 19.2219 39.6943 21.9659 43.9503 21.9659ZM60.689 21.9659C64.525 21.9659 67.045 19.9499 67.045 16.8699C67.045 13.1739 63.881 12.6699 61.417 12.2219C59.849 11.9419 58.561 11.6899 58.561 10.6819C58.561 9.81393 59.317 9.25393 60.577 9.25393C62.005 9.25393 62.845 9.84193 62.873 11.0459H66.765C66.737 8.02193 64.329 5.97793 60.689 5.97793C57.049 5.97793 54.613 7.96593 54.613 10.8219C54.613 14.3779 57.693 15.0219 60.101 15.4419C61.697 15.6939 63.013 16.0019 63.013 17.0379C63.013 18.0459 61.977 18.5779 60.857 18.5779C59.401 18.5779 58.365 17.9059 58.337 16.5619H54.361C54.361 19.7819 56.909 21.9659 60.689 21.9659ZM85.2839 13.9299C85.2839 9.56193 82.0919 5.97793 77.4439 5.97793C72.9639 5.97793 69.6039 9.42193 69.6039 13.9579C69.6039 18.4939 72.9919 21.9659 77.4439 21.9659C80.9719 21.9659 83.8559 19.8659 84.9479 16.5619H80.6639C80.0479 17.6539 78.8719 18.3259 77.4439 18.3259C75.4559 18.3259 74.1119 17.1779 73.7479 15.1059H85.1999C85.2559 14.7139 85.2839 14.3219 85.2839 13.9299ZM77.4439 9.47793C79.2919 9.47793 80.6079 10.4859 81.1959 12.3339H73.8599C74.3359 10.5419 75.6239 9.47793 77.4439 9.47793Z" fill="white"/>
</svg>
