<svg width="12" height="11" viewBox="0 0 12 11" fill="none" xmlns="http://www.w3.org/2000/svg">
<path fill-rule="evenodd" clip-rule="evenodd" d="M5.33333 7.5625C7.45733 7.5625 9.36333 7.95506 10.6667 9.66831V11H0V9.66831C1.30333 7.95437 3.20933 7.5625 5.33333 7.5625ZM5.33333 5.5C4.62609 5.5 3.94781 5.21027 3.44772 4.69454C2.94762 4.17882 2.66667 3.47935 2.66667 2.75C2.66667 2.02065 2.94762 1.32118 3.44772 0.805456C3.94781 0.289731 4.62609 0 5.33333 0C6.04058 0 6.71885 0.289731 7.21895 0.805456C7.71905 1.32118 8 2.02065 8 2.75C8 3.47935 7.71905 4.17882 7.21895 4.69454C6.71885 5.21027 6.04058 5.5 5.33333 5.5ZM10.6667 6.875C10.6667 7.05734 10.5964 7.2322 10.4714 7.36114C10.3464 7.49007 10.1768 7.5625 10 7.5625C9.82319 7.5625 9.65362 7.49007 9.52859 7.36114C9.40357 7.2322 9.33333 7.05734 9.33333 6.875V6.1875H8.66667C8.48986 6.1875 8.32029 6.11507 8.19526 5.98614C8.07024 5.8572 8 5.68234 8 5.5C8 5.31766 8.07024 5.1428 8.19526 5.01386C8.32029 4.88493 8.48986 4.8125 8.66667 4.8125H9.33333V4.125C9.33333 3.94266 9.40357 3.7678 9.52859 3.63886C9.65362 3.50993 9.82319 3.4375 10 3.4375C10.1768 3.4375 10.3464 3.50993 10.4714 3.63886C10.5964 3.7678 10.6667 3.94266 10.6667 4.125V4.8125H11.3333C11.5101 4.8125 11.6797 4.88493 11.8047 5.01386C11.9298 5.1428 12 5.31766 12 5.5C12 5.68234 11.9298 5.8572 11.8047 5.98614C11.6797 6.11507 11.5101 6.1875 11.3333 6.1875H10.6667V6.875Z" fill="white"/>
</svg>
