<svg width="32" height="33" viewBox="0 0 32 33" fill="none" xmlns="http://www.w3.org/2000/svg">
<path d="M16.2666 24.3963H19.2101C18.764 25.5558 17.6491 26.3587 16.3115 26.3587C15.0183 26.3587 13.8585 25.5561 13.4128 24.3963H16.2666ZM23.8034 20.2934C20.5923 18.4648 22.8222 13.024 20.8153 10.2144C20.0127 9.09947 18.8978 8.43067 17.6488 8.20761L17.6491 8.07384C17.6491 7.36021 17.0692 6.73584 16.3111 6.73584C15.5974 6.73584 14.9731 7.3157 14.9731 8.07384V8.20761C13.7243 8.47514 12.565 9.14431 11.8065 10.2144C9.7997 13.0241 12.0296 18.4649 8.81848 20.2934C7.65902 20.9177 7.70354 23.0138 9.13081 23.1476H23.5358C24.9182 23.0139 24.963 20.9625 23.8033 20.2934H23.8034Z" fill="white"/>
</svg>
