<svg width="32" height="33" viewBox="0 0 32 33" fill="none" xmlns="http://www.w3.org/2000/svg">
<path d="M21.9995 16.7358C21.9995 16.4706 21.8942 16.2163 21.7066 16.0287C21.5191 15.8412 21.2647 15.7358 20.9995 15.7358H11.9995V9.23584C11.9995 7.23584 14.1114 5.73584 15.9995 5.73584H25.4995C26.4275 5.73683 27.3171 6.1059 27.9733 6.76206C28.6295 7.41822 28.9985 8.30789 28.9995 9.23584V24.2358C28.9985 25.1638 28.6295 26.0535 27.9733 26.7096C27.3171 27.3658 26.4275 27.7348 25.4995 27.7358H15.4995C14.5716 27.7348 13.6819 27.3658 13.0257 26.7096C12.3696 26.0535 12.0005 25.1638 11.9995 24.2358V17.7358H20.9995C21.2647 17.7358 21.5191 17.6305 21.7066 17.4429C21.8942 17.2554 21.9995 17.0011 21.9995 16.7358Z" fill="white"/>
<path d="M3.29264 16.0289L8.29264 11.0289C8.4817 10.8493 8.73345 10.7506 8.99421 10.754C9.25497 10.7573 9.50411 10.8624 9.68851 11.0468C9.87292 11.2312 9.97799 11.4803 9.98133 11.7411C9.98467 12.0019 9.88601 12.2536 9.70639 12.4427L6.41389 15.7358H11.9995V17.7358H6.41389L9.70639 21.0289C9.80315 21.1209 9.88054 21.2312 9.93398 21.3536C9.98741 21.4759 10.0158 21.6076 10.0175 21.7411C10.0192 21.8746 9.99421 22.007 9.94393 22.1307C9.89364 22.2543 9.8191 22.3666 9.72472 22.461C9.63034 22.5554 9.51802 22.6299 9.39438 22.6802C9.27074 22.7305 9.13828 22.7555 9.00481 22.7538C8.87135 22.7521 8.73957 22.7237 8.61726 22.6703C8.49495 22.6168 8.38457 22.5394 8.29264 22.4427L3.29264 17.4427C3.10524 17.2552 2.99998 17.0009 2.99998 16.7358C2.99998 16.4707 3.10524 16.2164 3.29264 16.0289Z" fill="white"/>
</svg>
