<svg width="24" height="24" viewBox="0 0 24 24" fill="none" xmlns="http://www.w3.org/2000/svg">
<path d="M9.74702 21.734C10.4865 21.9105 11.2435 21.9995 12.0035 21.9995C12.7619 21.9987 13.5175 21.9091 14.255 21.7325C14.4489 21.6858 14.6237 21.5805 14.7556 21.4309C14.8874 21.2813 14.97 21.0947 14.992 20.8965L15.161 19.361C15.1896 19.0864 15.3152 18.831 15.5153 18.6408C15.7154 18.4506 15.9768 18.3381 16.2525 18.3235C16.436 18.3155 16.6185 18.35 16.7865 18.4235L18.19 19.039C18.312 19.0939 18.4442 19.1227 18.578 19.1235C18.7118 19.1244 18.8443 19.0973 18.967 19.044C19.0905 18.9915 19.201 18.9135 19.292 18.815C20.324 17.7026 21.0944 16.3738 21.547 14.9255C21.6063 14.7334 21.6044 14.5276 21.5417 14.3365C21.479 14.1455 21.3586 13.9786 21.197 13.859L19.95 12.939C19.8015 12.8311 19.6806 12.6896 19.5973 12.5261C19.5139 12.3625 19.4705 12.1816 19.4705 11.998C19.4705 11.8144 19.5139 11.6335 19.5973 11.4699C19.6806 11.3064 19.8015 11.1649 19.95 11.057L21.193 10.139C21.355 10.0191 21.4758 9.85183 21.5385 9.6603C21.6012 9.46876 21.6028 9.26247 21.543 9.06999C21.0903 7.62152 20.3189 6.29284 19.2855 5.18149C19.1486 5.03514 18.9696 4.9349 18.7733 4.8946C18.577 4.8543 18.373 4.87592 18.1895 4.95649L16.7865 5.57449C16.6415 5.63999 16.4835 5.67449 16.3235 5.67449C16.0355 5.67392 15.7579 5.56706 15.5438 5.3744C15.3297 5.18174 15.1943 4.91684 15.1635 4.63049L14.9935 3.10049C14.9718 2.89968 14.8878 2.71069 14.7533 2.55998C14.6188 2.40927 14.4406 2.30438 14.2435 2.25999C13.5097 2.09617 12.7608 2.0092 12.009 2.00049C11.2521 2.00922 10.498 2.09636 9.75902 2.26049C9.5622 2.30463 9.3841 2.40918 9.24962 2.55953C9.11515 2.70987 9.03102 2.89848 9.00902 3.09899L8.83902 4.62999C8.80694 4.9168 8.67022 5.1817 8.45502 5.37399C8.23552 5.56049 7.95852 5.66649 7.67052 5.67399C7.51164 5.67388 7.3545 5.64085 7.20902 5.57699L5.80902 4.95899C5.62491 4.8777 5.42006 4.85578 5.22292 4.89629C5.02578 4.93679 4.84616 5.0377 4.70902 5.18499C3.67705 6.29659 2.9066 7.6248 2.45402 9.07249C2.39423 9.26489 2.39581 9.47112 2.45852 9.66259C2.52124 9.85405 2.64199 10.0212 2.80402 10.141L4.04802 11.059C4.27025 11.2232 4.42729 11.4607 4.49143 11.7295C4.55556 11.9983 4.52265 12.2811 4.39852 12.528C4.31597 12.6917 4.19607 12.8337 4.04852 12.9425L2.80352 13.862C2.64163 13.9816 2.52096 14.1486 2.45825 14.3399C2.39554 14.5312 2.39388 14.7372 2.45352 14.9295C2.9053 16.3786 3.67581 17.7081 4.70852 18.8205C4.84494 18.9677 5.0239 19.0687 5.22045 19.1094C5.417 19.1501 5.62135 19.1285 5.80502 19.0475L7.21402 18.429C7.35952 18.365 7.51652 18.332 7.67552 18.332H7.67952C7.96644 18.3324 8.2432 18.4382 8.45711 18.6295C8.67101 18.8207 8.80712 19.0839 8.83952 19.369L9.00852 20.8975C9.03053 21.096 9.11327 21.2828 9.24544 21.4326C9.37762 21.5823 9.55278 21.6875 9.74702 21.734V21.734ZM12 15.125C11.1712 15.125 10.3764 14.7957 9.79031 14.2097C9.20426 13.6236 8.87502 12.8288 8.87502 12C8.87502 11.1712 9.20426 10.3763 9.79031 9.79028C10.3764 9.20423 11.1712 8.87499 12 8.87499C12.8288 8.87499 13.6237 9.20423 14.2097 9.79028C14.7958 10.3763 15.125 11.1712 15.125 12C15.125 12.8288 14.7958 13.6236 14.2097 14.2097C13.6237 14.7957 12.8288 15.125 12 15.125Z" fill="#292929"/>
</svg>
