<svg width="90" height="68" viewBox="0 0 90 68" fill="none" xmlns="http://www.w3.org/2000/svg">
<path fill-rule="evenodd" clip-rule="evenodd" d="M20.9701 33.9565C18.6371 33.4085 17.109 31.9445 16.2118 29.7822C14.5365 25.7442 16.7927 20.9813 20.2984 18.7563C25.0707 15.7267 31.0252 16.8947 34.9599 20.82C39.142 24.9911 40.2834 30.0672 38.4045 35.6271C36.153 42.2627 31.3587 46.2099 24.5086 47.4281C18.9534 48.416 13.9556 46.7501 9.45722 43.4574L7.38262 41.8462C7.05434 41.4287 6.71675 41.0188 6.37966 40.6096C5.64601 39.7188 4.91477 38.8309 4.28717 37.874C1.52208 33.6621 0.372834 28.9947 0.779925 23.9812C1.13535 19.5768 2.73396 15.5951 5.23131 11.9752C8.5444 7.17304 13.0114 3.83333 18.5009 1.93566C22.8536 0.40639 27.5376 0.0764912 32.0617 0.980562C37.8299 2.11259 42.8528 4.73833 47.1131 8.74347C51.3735 12.7486 54.2576 17.5366 55.8515 23.1733C57.2848 28.1555 57.4142 33.4224 56.2273 38.4689C55.2878 42.507 53.5514 46.2225 51.2435 49.6624C47.0568 55.9003 41.4551 60.3715 34.4385 63.076C31.1505 64.3411 27.7199 65.0066 24.1673 65.207C19.5531 65.4653 15.1487 64.695 10.8492 63.1199C10.5751 63.0197 10.3127 62.8878 10.0509 62.7563C9.94034 62.7008 9.82987 62.6452 9.7187 62.5922C9.65451 62.5609 9.5997 62.5139 9.56213 62.3464C9.74773 62.3687 9.93333 62.3917 10.1189 62.4147C10.4281 62.453 10.7373 62.4912 11.0464 62.5265C17.6648 63.2702 24.0624 62.4716 30.0779 59.5328C36.8106 56.2447 41.9212 51.2782 45.0902 44.3984C46.7843 40.7205 47.7989 36.9126 47.6173 32.848C47.3042 25.8914 44.395 20.236 38.94 15.9192C36.3503 13.8681 33.3989 12.4605 30.1484 11.925C24.8954 11.0608 20.2185 12.4715 16.323 16.1228C13.5782 18.6968 11.8622 21.8549 11.5303 25.6738C11.0386 31.3104 15.144 36.9471 20.6757 38.2263C25.9397 39.4444 31.4699 35.6757 32.1056 30.2958C32.4187 27.6247 31.3853 25.3559 29.3483 23.5632C25.3212 20.0246 19.3417 21.8189 17.9357 26.9937C17.3235 29.2515 18.3428 32.004 20.3469 33.4962L20.9701 33.9565ZM82.5881 14.2606C82.5881 15.6442 81.4665 16.7658 80.083 16.7658C79.1279 16.7658 78.2976 16.2313 77.8749 15.4451L77.6964 15.5583C77.1656 15.8947 76.6906 16.1959 76.2217 16.5064C73.7572 18.1364 72.6784 20.5867 72.2557 23.3816C72.0715 24.6 71.9485 25.8273 71.8256 27.0547L71.8254 27.0559C71.777 27.5395 71.7285 28.0231 71.6763 28.5062C71.6712 28.6548 71.678 28.8035 71.6967 28.9509C73.0009 29.3048 73.1747 29.2437 73.7572 28.1085C73.8262 27.9741 73.8949 27.8395 73.9636 27.7049C74.7808 26.1051 75.5962 24.5087 76.8166 23.1467C78.6454 21.1113 80.8735 20.2016 83.5947 20.6165C84.1912 20.7073 84.5796 20.6588 84.9381 20.0591C85.4986 19.1197 86.8467 18.8065 87.7674 19.2355C88.9401 19.7835 89.5179 20.9296 89.2235 22.1227C88.9448 23.2501 87.9052 23.9578 86.6181 23.892C86.0785 23.8751 85.5639 23.6605 85.1721 23.289C84.7804 22.9174 84.5389 22.4149 84.4934 21.8769C84.4339 21.1629 84.1239 21.0612 83.5008 21.0659C80.6543 21.0815 78.6282 22.4343 77.3615 24.8956C76.8665 25.86 76.4697 26.8706 76.0723 27.8827L76.072 27.8834C75.8888 28.35 75.7055 28.8169 75.5124 29.2797C75.304 29.7766 75.6248 29.9121 75.9408 30.0456C75.9694 30.0576 75.9979 30.0697 76.0261 30.082C76.0397 30.088 76.0533 30.094 76.0667 30.1001C79.4862 31.6753 80.4585 36.2738 79.5676 38.9982C79.4042 38.979 79.239 38.9602 79.0728 38.9413L79.0727 38.9412C78.7119 38.9002 78.346 38.8586 77.9815 38.8103C73.0385 38.1652 69.3011 40.124 67.1169 44.6035C66.4657 45.9392 65.8484 47.2918 65.2312 48.6441L65.2309 48.6448C64.3911 50.485 63.5514 52.3249 62.6264 54.1216C59.6875 59.8303 55.0842 63.61 48.9466 65.5515C43.6606 67.23 38.2416 67.706 32.7428 67.4554C31.665 67.4061 30.5946 67.2385 29.5239 67.0709L29.5238 67.0709C29.0313 66.9938 28.5388 66.9167 28.0456 66.8511C28.0315 66.7884 28.0315 66.7148 28.0315 66.6413C32.7714 65.8763 37.311 64.1729 41.3841 61.6309C47.3213 57.9467 51.8463 52.9614 55.031 46.7564C56.8144 43.2774 58.1625 39.6292 58.4834 35.7274C58.6056 34.2634 59.3462 33.6544 60.3796 33.0265C62.9489 31.4608 65.5935 30.0923 68.5652 29.4535C69.5469 29.2437 69.7599 28.7614 69.9337 27.548C70.3376 24.7422 70.7666 21.9286 72.2118 19.4062C73.4644 17.2314 75.3276 15.8144 77.6731 15.0065L77.6891 15.0013C77.6167 14.7672 77.5778 14.5184 77.5778 14.2606C77.5778 12.877 78.6994 11.7554 80.083 11.7554C81.4665 11.7554 82.5881 12.877 82.5881 14.2606Z" fill="white"/>
</svg>
