<svg width="69" height="64" viewBox="0 0 69 64" fill="none" xmlns="http://www.w3.org/2000/svg">
<g filter="url(#filter0_d_33_7763)">
<path d="M12.75 18C12.75 13.5817 16.3317 10 20.75 10H48.75C53.1683 10 56.75 13.5817 56.75 18V46C56.75 50.4183 53.1683 54 48.75 54H20.75C16.3317 54 12.75 50.4183 12.75 46V18Z" fill="white"/>
<path d="M40.2591 30.0126L32.8224 37.4512C32.4234 37.8493 31.924 38.1319 31.3773 38.2689L28.5233 38.9815C28.4192 39.0075 28.31 39.0061 28.2065 38.9775C28.103 38.9488 28.0087 38.8939 27.9327 38.818C27.8567 38.7421 27.8016 38.6479 27.7728 38.5444C27.744 38.441 27.7425 38.3318 27.7683 38.2276L28.4808 35.3734C28.6182 34.8263 28.9017 34.3267 29.3009 33.9282L36.7364 26.4896L40.2591 30.0114V30.0126ZM42.0218 24.7293C42.4881 25.1967 42.75 25.83 42.75 26.4902C42.75 27.1505 42.4881 27.7838 42.0218 28.2511L41.1392 29.1312L37.6177 25.6082L38.499 24.7293C38.966 24.2624 39.5994 24 40.2598 24C40.9202 24 41.5535 24.2624 42.0205 24.7293H42.0218Z" fill="#292929"/>
</g>
<defs>
<filter id="filter0_d_33_7763" x="0.75" y="-2" width="68" height="68" filterUnits="userSpaceOnUse" color-interpolation-filters="sRGB">
<feFlood flood-opacity="0" result="BackgroundImageFix"/>
<feColorMatrix in="SourceAlpha" type="matrix" values="0 0 0 0 0 0 0 0 0 0 0 0 0 0 0 0 0 0 127 0" result="hardAlpha"/>
<feOffset/>
<feGaussianBlur stdDeviation="6"/>
<feComposite in2="hardAlpha" operator="out"/>
<feColorMatrix type="matrix" values="0 0 0 0 0 0 0 0 0 0 0 0 0 0 0 0 0 0 0.05 0"/>
<feBlend mode="normal" in2="BackgroundImageFix" result="effect1_dropShadow_33_7763"/>
<feBlend mode="normal" in="SourceGraphic" in2="effect1_dropShadow_33_7763" result="shape"/>
</filter>
</defs>
</svg>
